<svg id="visual" viewBox="0 0 900 200" width="900" height="200" xmlns="http://www.w3.org/2000/svg" xmlns:xlink="http://www.w3.org/1999/xlink" version="1.1"><rect x="0" y="0" width="900" height="200" fill="#ffffff"></rect><path d="M0 123L13.7 118.5C27.3 114 54.7 105 82 102.8C109.3 100.7 136.7 105.3 163.8 108.5C191 111.7 218 113.3 245.2 111.7C272.3 110 299.7 105 327 103.8C354.3 102.7 381.7 105.3 409 104.3C436.3 103.3 463.7 98.7 491 94.3C518.3 90 545.7 86 573 90.5C600.3 95 627.7 108 654.8 107.2C682 106.3 709 91.7 736.2 88.7C763.3 85.7 790.7 94.3 818 103.8C845.3 113.3 872.7 123.7 886.3 128.8L900 134L900 0L886.3 0C872.7 0 845.3 0 818 0C790.7 0 763.3 0 736.2 0C709 0 682 0 654.8 0C627.7 0 600.3 0 573 0C545.7 0 518.3 0 491 0C463.7 0 436.3 0 409 0C381.7 0 354.3 0 327 0C299.7 0 272.3 0 245.2 0C218 0 191 0 163.8 0C136.7 0 109.3 0 82 0C54.7 0 27.3 0 13.7 0L0 0Z" fill="#0f5d6e"></path><path d="M0 102L13.7 97C27.3 92 54.7 82 82 75C109.3 68 136.7 64 163.8 60.7C191 57.3 218 54.7 245.2 59.7C272.3 64.7 299.7 77.3 327 81.7C354.3 86 381.7 82 409 83.3C436.3 84.7 463.7 91.3 491 86.8C518.3 82.3 545.7 66.7 573 67.3C600.3 68 627.7 85 654.8 94.5C682 104 709 106 736.2 101.7C763.3 97.3 790.7 86.7 818 80.8C845.3 75 872.7 74 886.3 73.5L900 73L900 0L886.3 0C872.7 0 845.3 0 818 0C790.7 0 763.3 0 736.2 0C709 0 682 0 654.8 0C627.7 0 600.3 0 573 0C545.7 0 518.3 0 491 0C463.7 0 436.3 0 409 0C381.7 0 354.3 0 327 0C299.7 0 272.3 0 245.2 0C218 0 191 0 163.8 0C136.7 0 109.3 0 82 0C54.7 0 27.3 0 13.7 0L0 0Z" fill="#1f7185"></path><path d="M0 55L13.7 54C27.3 53 54.7 51 82 53.8C109.3 56.7 136.7 64.3 163.8 65.7C191 67 218 62 245.2 55.7C272.3 49.3 299.7 41.7 327 40.8C354.3 40 381.7 46 409 46.3C436.3 46.7 463.7 41.3 491 42.2C518.3 43 545.7 50 573 50.3C600.3 50.7 627.7 44.3 654.8 46.5C682 48.7 709 59.3 736.2 63.7C763.3 68 790.7 66 818 67.7C845.3 69.3 872.7 74.7 886.3 77.3L900 80L900 0L886.3 0C872.7 0 845.3 0 818 0C790.7 0 763.3 0 736.2 0C709 0 682 0 654.8 0C627.7 0 600.3 0 573 0C545.7 0 518.3 0 491 0C463.7 0 436.3 0 409 0C381.7 0 354.3 0 327 0C299.7 0 272.3 0 245.2 0C218 0 191 0 163.8 0C136.7 0 109.3 0 82 0C54.7 0 27.3 0 13.7 0L0 0Z" fill="#2d869c"></path><path d="M0 16L13.7 23.2C27.3 30.3 54.7 44.7 82 47.8C109.3 51 136.7 43 163.8 38.2C191 33.3 218 31.7 245.2 34.2C272.3 36.7 299.7 43.3 327 42C354.3 40.7 381.7 31.3 409 26.3C436.3 21.3 463.7 20.7 491 21.2C518.3 21.7 545.7 23.3 573 25.5C600.3 27.7 627.7 30.3 654.8 33.5C682 36.7 709 40.3 736.2 43.2C763.3 46 790.7 48 818 46.8C845.3 45.7 872.7 41.3 886.3 39.2L900 37L900 0L886.3 0C872.7 0 845.3 0 818 0C790.7 0 763.3 0 736.2 0C709 0 682 0 654.8 0C627.7 0 600.3 0 573 0C545.7 0 518.3 0 491 0C463.7 0 436.3 0 409 0C381.7 0 354.3 0 327 0C299.7 0 272.3 0 245.2 0C218 0 191 0 163.8 0C136.7 0 109.3 0 82 0C54.7 0 27.3 0 13.7 0L0 0Z" fill="#3b9bb4"></path><path d="M0 12L13.7 15.7C27.3 19.3 54.7 26.7 82 25.5C109.3 24.3 136.7 14.7 163.8 9.8C191 5 218 5 245.2 6.5C272.3 8 299.7 11 327 10.7C354.3 10.3 381.7 6.7 409 11.5C436.3 16.3 463.7 29.7 491 33C518.3 36.3 545.7 29.7 573 24.3C600.3 19 627.7 15 654.8 14.5C682 14 709 17 736.2 20C763.3 23 790.7 26 818 28C845.3 30 872.7 31 886.3 31.5L900 32L900 0L886.3 0C872.7 0 845.3 0 818 0C790.7 0 763.3 0 736.2 0C709 0 682 0 654.8 0C627.7 0 600.3 0 573 0C545.7 0 518.3 0 491 0C463.7 0 436.3 0 409 0C381.7 0 354.3 0 327 0C299.7 0 272.3 0 245.2 0C218 0 191 0 163.8 0C136.7 0 109.3 0 82 0C54.7 0 27.3 0 13.7 0L0 0Z" fill="#4ab1cd"></path></svg>