<svg id="visual" viewBox="0 0 900 200" width="900" height="200" xmlns="http://www.w3.org/2000/svg" xmlns:xlink="http://www.w3.org/1999/xlink" version="1.1"><rect x="0" y="0" width="900" height="200" fill="#ffffff"></rect><path d="M0 98L13.7 102.3C27.3 106.7 54.7 115.3 82 109.8C109.3 104.3 136.7 84.7 163.8 78.3C191 72 218 79 245.2 87C272.3 95 299.7 104 327 107.8C354.3 111.7 381.7 110.3 409 108.5C436.3 106.7 463.7 104.3 491 100.3C518.3 96.3 545.7 90.7 573 89.5C600.3 88.3 627.7 91.7 654.8 89.3C682 87 709 79 736.2 79.7C763.3 80.3 790.7 89.7 818 98.8C845.3 108 872.7 117 886.3 121.5L900 126L900 201L886.3 201C872.7 201 845.3 201 818 201C790.7 201 763.3 201 736.2 201C709 201 682 201 654.8 201C627.7 201 600.3 201 573 201C545.7 201 518.3 201 491 201C463.7 201 436.3 201 409 201C381.7 201 354.3 201 327 201C299.7 201 272.3 201 245.2 201C218 201 191 201 163.8 201C136.7 201 109.3 201 82 201C54.7 201 27.3 201 13.7 201L0 201Z" fill="#0f5d6e"></path><path d="M0 100L13.7 98.5C27.3 97 54.7 94 82 95.8C109.3 97.7 136.7 104.3 163.8 111.3C191 118.3 218 125.7 245.2 122.3C272.3 119 299.7 105 327 103C354.3 101 381.7 111 409 120C436.3 129 463.7 137 491 137.2C518.3 137.3 545.7 129.7 573 127C600.3 124.3 627.7 126.7 654.8 130.8C682 135 709 141 736.2 136.7C763.3 132.3 790.7 117.7 818 114.7C845.3 111.7 872.7 120.3 886.3 124.7L900 129L900 201L886.3 201C872.7 201 845.3 201 818 201C790.7 201 763.3 201 736.2 201C709 201 682 201 654.8 201C627.7 201 600.3 201 573 201C545.7 201 518.3 201 491 201C463.7 201 436.3 201 409 201C381.7 201 354.3 201 327 201C299.7 201 272.3 201 245.2 201C218 201 191 201 163.8 201C136.7 201 109.3 201 82 201C54.7 201 27.3 201 13.7 201L0 201Z" fill="#1f7185"></path><path d="M0 141L13.7 141.7C27.3 142.3 54.7 143.7 82 141.2C109.3 138.7 136.7 132.3 163.8 126.5C191 120.7 218 115.3 245.2 118C272.3 120.7 299.7 131.3 327 134.3C354.3 137.3 381.7 132.7 409 127.2C436.3 121.7 463.7 115.3 491 112.3C518.3 109.3 545.7 109.7 573 110.5C600.3 111.3 627.7 112.7 654.8 120.8C682 129 709 144 736.2 144.3C763.3 144.7 790.7 130.3 818 130.2C845.3 130 872.7 144 886.3 151L900 158L900 201L886.3 201C872.7 201 845.3 201 818 201C790.7 201 763.3 201 736.2 201C709 201 682 201 654.8 201C627.7 201 600.3 201 573 201C545.7 201 518.3 201 491 201C463.7 201 436.3 201 409 201C381.7 201 354.3 201 327 201C299.7 201 272.3 201 245.2 201C218 201 191 201 163.8 201C136.7 201 109.3 201 82 201C54.7 201 27.3 201 13.7 201L0 201Z" fill="#2d869c"></path><path d="M0 144L13.7 149C27.3 154 54.7 164 82 162.7C109.3 161.3 136.7 148.7 163.8 143.5C191 138.3 218 140.7 245.2 140.8C272.3 141 299.7 139 327 144.7C354.3 150.3 381.7 163.7 409 165.3C436.3 167 463.7 157 491 157.3C518.3 157.7 545.7 168.3 573 173C600.3 177.7 627.7 176.3 654.8 170C682 163.7 709 152.3 736.2 148.3C763.3 144.3 790.7 147.7 818 149.8C845.3 152 872.7 153 886.3 153.5L900 154L900 201L886.3 201C872.7 201 845.3 201 818 201C790.7 201 763.3 201 736.2 201C709 201 682 201 654.8 201C627.7 201 600.3 201 573 201C545.7 201 518.3 201 491 201C463.7 201 436.3 201 409 201C381.7 201 354.3 201 327 201C299.7 201 272.3 201 245.2 201C218 201 191 201 163.8 201C136.7 201 109.3 201 82 201C54.7 201 27.3 201 13.7 201L0 201Z" fill="#3b9bb4"></path><path d="M0 185L13.7 185.5C27.3 186 54.7 187 82 183.8C109.3 180.7 136.7 173.3 163.8 171.7C191 170 218 174 245.2 179C272.3 184 299.7 190 327 188C354.3 186 381.7 176 409 173C436.3 170 463.7 174 491 178.7C518.3 183.3 545.7 188.7 573 186C600.3 183.3 627.7 172.7 654.8 166.5C682 160.3 709 158.7 736.2 159.5C763.3 160.3 790.7 163.7 818 167.5C845.3 171.3 872.7 175.7 886.3 177.8L900 180L900 201L886.3 201C872.7 201 845.3 201 818 201C790.7 201 763.3 201 736.2 201C709 201 682 201 654.8 201C627.7 201 600.3 201 573 201C545.7 201 518.3 201 491 201C463.7 201 436.3 201 409 201C381.7 201 354.3 201 327 201C299.7 201 272.3 201 245.2 201C218 201 191 201 163.8 201C136.7 201 109.3 201 82 201C54.7 201 27.3 201 13.7 201L0 201Z" fill="#4ab1cd"></path></svg>