<svg id="visual" viewBox="0 0 900 200" width="900" height="200" xmlns="http://www.w3.org/2000/svg" xmlns:xlink="http://www.w3.org/1999/xlink" version="1.1"><rect x="0" y="0" width="900" height="200" fill="#ffffff"></rect><path d="M0 126L13.7 118.5C27.3 111 54.7 96 82 90.3C109.3 84.7 136.7 88.3 163.8 92.8C191 97.3 218 102.7 245.2 105.2C272.3 107.7 299.7 107.3 327 112.3C354.3 117.3 381.7 127.7 409 126.7C436.3 125.7 463.7 113.3 491 106.3C518.3 99.3 545.7 97.7 573 94.3C600.3 91 627.7 86 654.8 90C682 94 709 107 736.2 111.2C763.3 115.3 790.7 110.7 818 112.3C845.3 114 872.7 122 886.3 126L900 130L900 201L886.3 201C872.7 201 845.3 201 818 201C790.7 201 763.3 201 736.2 201C709 201 682 201 654.8 201C627.7 201 600.3 201 573 201C545.7 201 518.3 201 491 201C463.7 201 436.3 201 409 201C381.7 201 354.3 201 327 201C299.7 201 272.3 201 245.2 201C218 201 191 201 163.8 201C136.7 201 109.3 201 82 201C54.7 201 27.3 201 13.7 201L0 201Z" fill="#0f5d6e"></path><path d="M0 139L13.7 134.5C27.3 130 54.7 121 82 123C109.3 125 136.7 138 163.8 136.3C191 134.7 218 118.3 245.2 115.5C272.3 112.7 299.7 123.3 327 122.7C354.3 122 381.7 110 409 112C436.3 114 463.7 130 491 132.8C518.3 135.7 545.7 125.3 573 119.5C600.3 113.7 627.7 112.3 654.8 107.8C682 103.3 709 95.7 736.2 98.5C763.3 101.3 790.7 114.7 818 120.8C845.3 127 872.7 126 886.3 125.5L900 125L900 201L886.3 201C872.7 201 845.3 201 818 201C790.7 201 763.3 201 736.2 201C709 201 682 201 654.8 201C627.7 201 600.3 201 573 201C545.7 201 518.3 201 491 201C463.7 201 436.3 201 409 201C381.7 201 354.3 201 327 201C299.7 201 272.3 201 245.2 201C218 201 191 201 163.8 201C136.7 201 109.3 201 82 201C54.7 201 27.3 201 13.7 201L0 201Z" fill="#0d6a7f"></path><path d="M0 156L13.7 149.2C27.3 142.3 54.7 128.7 82 125.2C109.3 121.7 136.7 128.3 163.8 135.3C191 142.3 218 149.7 245.2 154.2C272.3 158.7 299.7 160.3 327 159.2C354.3 158 381.7 154 409 150.2C436.3 146.3 463.7 142.7 491 136.8C518.3 131 545.7 123 573 122C600.3 121 627.7 127 654.8 132.2C682 137.3 709 141.7 736.2 137.7C763.3 133.7 790.7 121.3 818 124.2C845.3 127 872.7 145 886.3 154L900 163L900 201L886.3 201C872.7 201 845.3 201 818 201C790.7 201 763.3 201 736.2 201C709 201 682 201 654.8 201C627.7 201 600.3 201 573 201C545.7 201 518.3 201 491 201C463.7 201 436.3 201 409 201C381.7 201 354.3 201 327 201C299.7 201 272.3 201 245.2 201C218 201 191 201 163.8 201C136.7 201 109.3 201 82 201C54.7 201 27.3 201 13.7 201L0 201Z" fill="#0a7890"></path><path d="M0 179L13.7 176.7C27.3 174.3 54.7 169.7 82 164.8C109.3 160 136.7 155 163.8 150.3C191 145.7 218 141.3 245.2 142.5C272.3 143.7 299.7 150.3 327 151.5C354.3 152.7 381.7 148.3 409 149.5C436.3 150.7 463.7 157.3 491 155.7C518.3 154 545.7 144 573 145.3C600.3 146.7 627.7 159.3 654.8 166.7C682 174 709 176 736.2 175.8C763.3 175.7 790.7 173.3 818 168.5C845.3 163.7 872.7 156.3 886.3 152.7L900 149L900 201L886.3 201C872.7 201 845.3 201 818 201C790.7 201 763.3 201 736.2 201C709 201 682 201 654.8 201C627.7 201 600.3 201 573 201C545.7 201 518.3 201 491 201C463.7 201 436.3 201 409 201C381.7 201 354.3 201 327 201C299.7 201 272.3 201 245.2 201C218 201 191 201 163.8 201C136.7 201 109.3 201 82 201C54.7 201 27.3 201 13.7 201L0 201Z" fill="#0586a2"></path><path d="M0 176L13.7 174C27.3 172 54.7 168 82 169.2C109.3 170.3 136.7 176.7 163.8 180.5C191 184.3 218 185.7 245.2 182.2C272.3 178.7 299.7 170.3 327 166.8C354.3 163.3 381.7 164.7 409 165.2C436.3 165.7 463.7 165.3 491 169.5C518.3 173.7 545.7 182.3 573 185.5C600.3 188.7 627.7 186.3 654.8 181.5C682 176.7 709 169.3 736.2 166.5C763.3 163.7 790.7 165.3 818 170.5C845.3 175.7 872.7 184.3 886.3 188.7L900 193L900 201L886.3 201C872.7 201 845.3 201 818 201C790.7 201 763.3 201 736.2 201C709 201 682 201 654.8 201C627.7 201 600.3 201 573 201C545.7 201 518.3 201 491 201C463.7 201 436.3 201 409 201C381.7 201 354.3 201 327 201C299.7 201 272.3 201 245.2 201C218 201 191 201 163.8 201C136.7 201 109.3 201 82 201C54.7 201 27.3 201 13.7 201L0 201Z" fill="#0094b5"></path></svg>