<svg id="visual" viewBox="0 0 900 300" width="900" height="300" xmlns="http://www.w3.org/2000/svg" xmlns:xlink="http://www.w3.org/1999/xlink" version="1.1"><rect x="0" y="0" width="900" height="300" fill="#ffffff"></rect><path d="M0 208L21.5 209.2C43 210.3 86 212.7 128.8 206.8C171.7 201 214.3 187 257.2 180.8C300 174.7 343 176.3 385.8 180.5C428.7 184.7 471.3 191.3 514.2 196.5C557 201.7 600 205.3 642.8 205.2C685.7 205 728.3 201 771.2 202.2C814 203.3 857 209.7 878.5 212.8L900 216L900 301L878.5 301C857 301 814 301 771.2 301C728.3 301 685.7 301 642.8 301C600 301 557 301 514.2 301C471.3 301 428.7 301 385.8 301C343 301 300 301 257.2 301C214.3 301 171.7 301 128.8 301C86 301 43 301 21.5 301L0 301Z" fill="#0f5d6e"></path><path d="M0 211L21.5 210.5C43 210 86 209 128.8 211.3C171.7 213.7 214.3 219.3 257.2 219.3C300 219.3 343 213.7 385.8 213.2C428.7 212.7 471.3 217.3 514.2 220.5C557 223.7 600 225.3 642.8 220.5C685.7 215.7 728.3 204.3 771.2 204.3C814 204.3 857 215.7 878.5 221.3L900 227L900 301L878.5 301C857 301 814 301 771.2 301C728.3 301 685.7 301 642.8 301C600 301 557 301 514.2 301C471.3 301 428.7 301 385.8 301C343 301 300 301 257.2 301C214.3 301 171.7 301 128.8 301C86 301 43 301 21.5 301L0 301Z" fill="#0e6577"></path><path d="M0 221L21.5 220C43 219 86 217 128.8 214.5C171.7 212 214.3 209 257.2 207.3C300 205.7 343 205.3 385.8 210.2C428.7 215 471.3 225 514.2 228.3C557 231.7 600 228.3 642.8 225.2C685.7 222 728.3 219 771.2 218.3C814 217.7 857 219.3 878.5 220.2L900 221L900 301L878.5 301C857 301 814 301 771.2 301C728.3 301 685.7 301 642.8 301C600 301 557 301 514.2 301C471.3 301 428.7 301 385.8 301C343 301 300 301 257.2 301C214.3 301 171.7 301 128.8 301C86 301 43 301 21.5 301L0 301Z" fill="#0d6c81"></path><path d="M0 247L21.5 244.2C43 241.3 86 235.7 128.8 235C171.7 234.3 214.3 238.7 257.2 238.8C300 239 343 235 385.8 235.2C428.7 235.3 471.3 239.7 514.2 239.2C557 238.7 600 233.3 642.8 233C685.7 232.7 728.3 237.3 771.2 239C814 240.7 857 239.3 878.5 238.7L900 238L900 301L878.5 301C857 301 814 301 771.2 301C728.3 301 685.7 301 642.8 301C600 301 557 301 514.2 301C471.3 301 428.7 301 385.8 301C343 301 300 301 257.2 301C214.3 301 171.7 301 128.8 301C86 301 43 301 21.5 301L0 301Z" fill="#0b748b"></path><path d="M0 236L21.5 236.3C43 236.7 86 237.3 128.8 237.8C171.7 238.3 214.3 238.7 257.2 240.3C300 242 343 245 385.8 247C428.7 249 471.3 250 514.2 251C557 252 600 253 642.8 251.7C685.7 250.3 728.3 246.7 771.2 246.2C814 245.7 857 248.3 878.5 249.7L900 251L900 301L878.5 301C857 301 814 301 771.2 301C728.3 301 685.7 301 642.8 301C600 301 557 301 514.2 301C471.3 301 428.7 301 385.8 301C343 301 300 301 257.2 301C214.3 301 171.7 301 128.8 301C86 301 43 301 21.5 301L0 301Z" fill="#097c95"></path><path d="M0 258L21.5 259.7C43 261.3 86 264.7 128.8 263.7C171.7 262.7 214.3 257.3 257.2 254.2C300 251 343 250 385.8 250.8C428.7 251.7 471.3 254.3 514.2 255.8C557 257.3 600 257.7 642.8 257.5C685.7 257.3 728.3 256.7 771.2 258.5C814 260.3 857 264.7 878.5 266.8L900 269L900 301L878.5 301C857 301 814 301 771.2 301C728.3 301 685.7 301 642.8 301C600 301 557 301 514.2 301C471.3 301 428.7 301 385.8 301C343 301 300 301 257.2 301C214.3 301 171.7 301 128.8 301C86 301 43 301 21.5 301L0 301Z" fill="#0684a0"></path><path d="M0 262L21.5 263.3C43 264.7 86 267.3 128.8 267.7C171.7 268 214.3 266 257.2 264.8C300 263.7 343 263.3 385.8 265.8C428.7 268.3 471.3 273.7 514.2 273.2C557 272.7 600 266.3 642.8 266.2C685.7 266 728.3 272 771.2 274.2C814 276.3 857 274.7 878.5 273.8L900 273L900 301L878.5 301C857 301 814 301 771.2 301C728.3 301 685.7 301 642.8 301C600 301 557 301 514.2 301C471.3 301 428.7 301 385.8 301C343 301 300 301 257.2 301C214.3 301 171.7 301 128.8 301C86 301 43 301 21.5 301L0 301Z" fill="#038caa"></path><path d="M0 277L21.5 277C43 277 86 277 128.8 278.8C171.7 280.7 214.3 284.3 257.2 284.3C300 284.3 343 280.7 385.8 281.2C428.7 281.7 471.3 286.3 514.2 288C557 289.7 600 288.3 642.8 286.2C685.7 284 728.3 281 771.2 280.5C814 280 857 282 878.5 283L900 284L900 301L878.5 301C857 301 814 301 771.2 301C728.3 301 685.7 301 642.8 301C600 301 557 301 514.2 301C471.3 301 428.7 301 385.8 301C343 301 300 301 257.2 301C214.3 301 171.7 301 128.8 301C86 301 43 301 21.5 301L0 301Z" fill="#0094b5"></path></svg>