<svg id="visual" viewBox="0 0 900 300" width="900" height="300" xmlns="http://www.w3.org/2000/svg" xmlns:xlink="http://www.w3.org/1999/xlink" version="1.1"><rect x="0" y="0" width="900" height="300" fill="#FFFFFF"></rect><path d="M0 175L75 134L150 175L225 189L300 170L375 187L450 167L525 172L600 178L675 115L750 126L825 163L900 139L900 301L825 301L750 301L675 301L600 301L525 301L450 301L375 301L300 301L225 301L150 301L75 301L0 301Z" fill="#155564"></path><path d="M0 200L75 188L150 144L225 180L300 182L375 172L450 176L525 156L600 138L675 176L750 206L825 146L900 157L900 301L825 301L750 301L675 301L600 301L525 301L450 301L375 301L300 301L225 301L150 301L75 301L0 301Z" fill="#145f71"></path><path d="M0 188L75 191L150 179L225 176L300 161L375 181L450 174L525 177L600 180L675 171L750 215L825 167L900 212L900 301L825 301L750 301L675 301L600 301L525 301L450 301L375 301L300 301L225 301L150 301L75 301L0 301Z" fill="#13697e"></path><path d="M0 225L75 191L150 219L225 233L300 206L375 241L450 204L525 189L600 200L675 244L750 187L825 185L900 208L900 301L825 301L750 301L675 301L600 301L525 301L450 301L375 301L300 301L225 301L150 301L75 301L0 301Z" fill="#10748b"></path><path d="M0 235L75 251L150 257L225 238L300 224L375 217L450 222L525 208L600 231L675 234L750 233L825 251L900 226L900 301L825 301L750 301L675 301L600 301L525 301L450 301L375 301L300 301L225 301L150 301L75 301L0 301Z" fill="#0c7f99"></path><path d="M0 244L75 241L150 272L225 231L300 245L375 272L450 252L525 233L600 254L675 257L750 257L825 240L900 233L900 301L825 301L750 301L675 301L600 301L525 301L450 301L375 301L300 301L225 301L150 301L75 301L0 301Z" fill="#0789a7"></path><path d="M0 277L75 256L150 277L225 262L300 273L375 261L450 290L525 285L600 268L675 258L750 271L825 285L900 281L900 301L825 301L750 301L675 301L600 301L525 301L450 301L375 301L300 301L225 301L150 301L75 301L0 301Z" fill="#0094b5"></path></svg>