<svg id="visual" viewBox="0 0 900 600" width="900" height="600" xmlns="http://www.w3.org/2000/svg" xmlns:xlink="http://www.w3.org/1999/xlink" version="1.1"><path d="M0 85L15 80C30 75 60 65 90 61C120 57 150 59 180 63C210 67 240 73 270 76C300 79 330 79 360 77C390 75 420 71 450 70C480 69 510 71 540 74C570 77 600 81 630 84C660 87 690 89 720 90C750 91 780 91 810 89C840 87 870 83 885 81L900 79L900 0L885 0C870 0 840 0 810 0C780 0 750 0 720 0C690 0 660 0 630 0C600 0 570 0 540 0C510 0 480 0 450 0C420 0 390 0 360 0C330 0 300 0 270 0C240 0 210 0 180 0C150 0 120 0 90 0C60 0 30 0 15 0L0 0Z" fill="#4ab1cd"></path><path d="M0 181L15 177C30 173 60 165 90 164C120 163 150 169 180 163C210 157 240 139 270 132C300 125 330 129 360 129C390 129 420 125 450 130C480 135 510 149 540 158C570 167 600 171 630 169C660 167 690 159 720 156C750 153 780 155 810 157C840 159 870 161 885 162L900 163L900 77L885 79C870 81 840 85 810 87C780 89 750 89 720 88C690 87 660 85 630 82C600 79 570 75 540 72C510 69 480 67 450 68C420 69 390 73 360 75C330 77 300 77 270 74C240 71 210 65 180 61C150 57 120 55 90 59C60 63 30 73 15 78L0 83Z" fill="#0094b5"></path><path d="M0 217L15 218C30 219 60 221 90 222C120 223 150 223 180 211C210 199 240 175 270 166C300 157 330 163 360 170C390 177 420 185 450 193C480 201 510 209 540 218C570 227 600 237 630 237C660 237 690 227 720 217C750 207 780 197 810 197C840 197 870 207 885 212L900 217L900 161L885 160C870 159 840 157 810 155C780 153 750 151 720 154C690 157 660 165 630 167C600 169 570 165 540 156C510 147 480 133 450 128C420 123 390 127 360 127C330 127 300 123 270 130C240 137 210 155 180 161C150 167 120 161 90 162C60 163 30 171 15 175L0 179Z" fill="#006d84"></path><path d="M0 271L15 274C30 277 60 283 90 286C120 289 150 289 180 288C210 287 240 285 270 279C300 273 330 263 360 261C390 259 420 265 450 267C480 269 510 267 540 279C570 291 600 317 630 329C660 341 690 339 720 329C750 319 780 301 810 294C840 287 870 291 885 293L900 295L900 215L885 210C870 205 840 195 810 195C780 195 750 205 720 215C690 225 660 235 630 235C600 235 570 225 540 216C510 207 480 199 450 191C420 183 390 175 360 168C330 161 300 155 270 164C240 173 210 197 180 209C150 221 120 221 90 220C60 219 30 217 15 216L0 215Z" fill="#006d84"></path><path d="M0 379L15 395C30 411 60 443 90 454C120 465 150 455 180 452C210 449 240 453 270 452C300 451 330 445 360 433C390 421 420 403 450 406C480 409 510 433 540 439C570 445 600 433 630 445C660 457 690 493 720 490C750 487 780 445 810 439C840 433 870 463 885 478L900 493L900 293L885 291C870 289 840 285 810 292C780 299 750 317 720 327C690 337 660 339 630 327C600 315 570 289 540 277C510 265 480 267 450 265C420 263 390 257 360 259C330 261 300 271 270 277C240 283 210 285 180 286C150 287 120 287 90 284C60 281 30 275 15 272L0 269Z" fill="#0094b5"></path><path d="M0 601L15 601C30 601 60 601 90 601C120 601 150 601 180 601C210 601 240 601 270 601C300 601 330 601 360 601C390 601 420 601 450 601C480 601 510 601 540 601C570 601 600 601 630 601C660 601 690 601 720 601C750 601 780 601 810 601C840 601 870 601 885 601L900 601L900 491L885 476C870 461 840 431 810 437C780 443 750 485 720 488C690 491 660 455 630 443C600 431 570 443 540 437C510 431 480 407 450 404C420 401 390 419 360 431C330 443 300 449 270 450C240 451 210 447 180 450C150 453 120 463 90 452C60 441 30 409 15 393L0 377Z" fill="#4ab1cd"></path></svg>