<svg id="visual" viewBox="0 0 900 300" width="900" height="300" xmlns="http://www.w3.org/2000/svg" xmlns:xlink="http://www.w3.org/1999/xlink" version="1.1"><rect x="0" y="0" width="900" height="300" fill="#ffffff"></rect><path d="M0 193L12.5 198.8C25 204.7 50 216.3 75 211.8C100 207.3 125 186.7 150 181.5C175 176.3 200 186.7 225 191.5C250 196.3 275 195.7 300 193.5C325 191.3 350 187.7 375 188.3C400 189 425 194 450 202.5C475 211 500 223 525 231.5C550 240 575 245 600 246.8C625 248.7 650 247.3 675 241.3C700 235.3 725 224.7 750 223.2C775 221.7 800 229.3 825 228C850 226.7 875 216.3 887.5 211.2L900 206L900 301L887.5 301C875 301 850 301 825 301C800 301 775 301 750 301C725 301 700 301 675 301C650 301 625 301 600 301C575 301 550 301 525 301C500 301 475 301 450 301C425 301 400 301 375 301C350 301 325 301 300 301C275 301 250 301 225 301C200 301 175 301 150 301C125 301 100 301 75 301C50 301 25 301 12.5 301L0 301Z" fill="#0094B5" stroke-linecap="round" stroke-linejoin="miter"></path></svg>